<?xml version="1.0" standalone="no"?>
<!DOCTYPE svg PUBLIC "-//W3C//DTD SVG 20010904//EN"
 "http://www.w3.org/TR/2001/REC-SVG-20010904/DTD/svg10.dtd">
<svg version="1.0" xmlns="http://www.w3.org/2000/svg"
 width="1218.000000pt" height="440.000000pt" viewBox="0 0 1218.000000 440.000000"
 preserveAspectRatio="xMidYMid meet">
<metadata>
Created by potrace 1.13, written by Peter Selinger 2001-2015
</metadata>
<g transform="translate(0.000000,440.000000) scale(0.100000,-0.100000)"
fill="#ffffff" stroke="none">
<path d="M6776 3958 c-8 -13 -83 -245 -167 -516 -161 -520 -164 -534 -114
-552 11 -4 148 11 305 33 300 41 320 47 320 94 0 36 -239 914 -256 941 -10 14
-24 22 -44 22 -20 0 -34 -7 -44 -22z"/>
<path d="M1902 2193 l3 -898 155 0 155 0 3 548 2 547 200 0 200 0 0 115 0 115
-200 0 -200 0 0 235 0 235 -160 0 -160 0 2 -897z"/>
<path d="M9700 2960 l0 -120 150 0 150 0 0 120 0 120 -150 0 -150 0 0 -120z"/>
<path fill="#cc2127" d="M7085 2866 c-676 -90 -1235 -164 -1241 -167 -7 -2 96 -82 227 -177
132 -96 237 -177 235 -180 -8 -15 -307 -944 -304 -947 3 -3 2313 1606 2332
1625 13 13 157 31 -1249 -154z"/>
<path d="M5113 2635 c-100 -22 -179 -62 -228 -117 -81 -90 -80 -80 -80 -688
l0 -535 162 -3 162 -2 3 502 3 503 23 37 c42 68 82 79 317 85 l205 6 0 114 0
113 -252 -1 c-173 0 -273 -5 -315 -14z"/>
<path d="M498 2630 c-159 -19 -275 -89 -324 -195 -21 -45 -24 -65 -24 -184 0
-74 5 -151 12 -173 24 -82 125 -161 258 -204 45 -14 110 -18 370 -23 351 -7
370 -10 405 -75 22 -41 17 -152 -10 -192 -38 -58 -46 -59 -562 -62 l-473 -3 0
-115 0 -114 530 0 c544 0 597 3 672 41 54 28 136 112 160 166 27 59 37 238 18
326 -23 112 -107 196 -238 238 -61 20 -96 23 -392 28 -311 6 -327 7 -367 29
-50 26 -62 46 -70 110 -8 71 14 114 73 143 l49 24 478 3 477 3 0 119 0 120
-487 -1 c-269 -1 -518 -5 -555 -9z"/>
<path d="M2990 2525 l0 -114 538 -3 c514 -3 539 -4 576 -23 54 -27 76 -61 85
-128 l8 -57 -406 0 c-448 -1 -516 -7 -624 -58 -73 -35 -132 -90 -161 -152 -18
-39 -21 -68 -24 -222 -3 -143 -1 -187 13 -233 30 -104 122 -178 275 -222 58
-16 108 -18 480 -18 446 0 473 2 578 53 72 35 147 118 167 184 23 77 22 800
-1 877 -20 67 -87 142 -158 175 -115 54 -147 56 -770 56 l-576 0 0 -115z
m1174 -555 l26 -10 0 -162 c0 -186 -8 -210 -76 -244 -36 -18 -64 -19 -359 -19
-317 0 -320 0 -368 24 -74 36 -87 65 -87 191 0 80 4 113 18 140 19 38 67 70
121 81 57 11 696 10 725 -1z"/>
<path d="M10450 2521 l0 -120 543 -3 c519 -3 544 -4 582 -23 47 -24 85 -89 85
-146 l0 -38 -442 -4 c-384 -3 -451 -6 -503 -21 -123 -36 -206 -100 -246 -189
-23 -49 -24 -63 -24 -247 0 -177 2 -199 21 -241 43 -93 149 -164 290 -194 101
-21 841 -21 932 0 125 30 222 100 266 194 20 45 21 57 21 471 0 412 -1 426
-21 471 -25 53 -83 113 -137 141 -21 10 -73 29 -115 41 -74 20 -101 21 -664
25 l-588 3 0 -120z m1180 -564 c25 -13 25 -13 28 -172 2 -144 0 -163 -17 -192
-42 -67 -49 -68 -421 -68 l-335 0 -45 25 c-69 38 -82 72 -78 202 3 89 7 112
24 134 32 44 66 64 120 73 85 15 695 13 724 -2z"/>
<path d="M8230 2612 c-124 -33 -225 -113 -255 -203 -24 -70 -18 -318 8 -366
25 -48 91 -107 150 -136 110 -54 158 -60 492 -66 326 -6 329 -7 375 -56 22
-24 25 -35 24 -99 -2 -92 -20 -128 -76 -152 -40 -17 -81 -19 -515 -22 l-473
-3 0 -115 0 -115 563 3 c648 4 615 -1 722 99 83 79 106 131 112 264 9 178 -24
273 -122 347 -100 75 -128 80 -500 88 -288 5 -335 8 -373 24 -65 28 -82 56
-82 136 0 80 17 108 82 136 40 17 81 19 521 22 l477 3 0 115 0 114 -532 -1
c-468 0 -541 -2 -598 -17z"/>
<path d="M9680 1955 l0 -675 160 0 160 0 0 675 0 675 -160 0 -160 0 0 -675z"/>
<path d="M7083 1994 c-157 -112 -213 -162 -213 -192 0 -11 18 -100 40 -198 45
-202 65 -241 139 -281 43 -22 52 -23 297 -23 139 0 255 3 257 8 3 4 -53 173
-123 377 -139 401 -146 415 -215 415 -27 0 -64 -22 -182 -106z"/>
</g>
</svg>
