<?xml version="1.0" standalone="no"?>
<!DOCTYPE svg PUBLIC "-//W3C//DTD SVG 20010904//EN"
 "http://www.w3.org/TR/2001/REC-SVG-20010904/DTD/svg10.dtd">
<svg version="1.0" xmlns="http://www.w3.org/2000/svg"
 width="1218.000000pt" height="379.000000pt" viewBox="0 0 1218.000000 379.000000"
 preserveAspectRatio="xMidYMid meet">
<metadata>
Created by potrace 1.13, written by Peter Selinger 2001-2015
</metadata>
<g transform="translate(0.000000,379.000000) scale(0.100000,-0.100000)"
fill="#000000" stroke="none">
<path d="M5851 3416 c-7 -8 -72 -209 -146 -447 -126 -405 -134 -434 -120 -456
20 -29 22 -29 294 8 220 30 271 44 271 74 0 20 -210 796 -221 818 -12 21 -62
23 -78 3z"/>
<path d="M1640 1885 l0 -775 140 0 140 0 0 475 0 475 170 0 170 0 0 100 0 100
-170 0 -170 0 0 200 0 200 -140 0 -140 0 0 -775z"/>
<path d="M10040 2545 l0 -105 130 0 130 0 0 105 0 105 -130 0 -130 0 0 -105z"/>
<path fill="#980E11" d="M6100 2469 c-575 -76 -1049 -138 -1053 -138 -18 -2 10 -24 194 -157
105 -76 193 -143 195 -149 3 -6 -55 -192 -126 -414 -72 -222 -130 -405 -128
-407 3 -2 1697 1175 1998 1389 l24 17 -29 -1 c-17 -1 -500 -64 -1075 -140z"/>
<path d="M4459 2279 c-118 -17 -206 -60 -255 -124 -52 -69 -54 -91 -54 -587
l0 -458 140 0 139 0 3 433 c3 403 4 434 22 463 37 62 61 68 266 74 l185 5 3
103 3 102 -198 -1 c-109 -1 -223 -5 -254 -10z"/>
<path d="M2587 2273 c-4 -3 -7 -50 -7 -104 l0 -98 473 -3 c423 -3 475 -5 503
-20 34 -19 64 -78 64 -128 l0 -30 -357 0 c-387 0 -447 -6 -540 -54 -55 -28
-107 -81 -131 -135 -22 -48 -24 -337 -3 -395 18 -52 75 -112 133 -142 100 -51
149 -55 552 -52 360 3 373 4 428 26 76 31 152 100 175 160 16 42 18 83 18 402
l0 355 -26 50 c-48 93 -151 148 -312 165 -103 11 -960 14 -970 3z m1014 -583
c17 -10 19 -22 19 -146 0 -158 -8 -181 -71 -210 -39 -17 -68 -19 -309 -19
-251 0 -268 1 -312 22 -64 29 -78 60 -78 168 0 117 19 153 97 181 48 17 623
20 654 4z"/>
<path d="M383 2259 c-101 -20 -200 -89 -234 -164 -15 -32 -19 -65 -19 -160 0
-143 13 -180 84 -242 93 -82 198 -103 518 -103 246 0 275 -6 303 -67 22 -46
11 -138 -20 -169 -40 -40 -81 -44 -492 -44 l-393 0 0 -100 0 -101 488 3 c558
3 533 0 630 97 70 69 85 124 81 275 -4 100 -7 116 -32 159 -33 56 -87 97 -166
129 -52 20 -78 22 -346 27 -319 7 -339 10 -370 71 -34 66 -14 139 47 172 43
23 48 23 455 26 l413 3 0 100 0 99 -452 -1 c-249 -1 -472 -5 -495 -10z"/>
<path d="M6920 2171 l0 -100 473 -3 c434 -3 475 -4 505 -21 36 -20 71 -83 72
-129 l0 -28 -312 0 c-465 0 -562 -16 -660 -107 -73 -69 -80 -97 -76 -310 l3
-181 30 -44 c38 -53 103 -98 181 -124 54 -17 90 -19 459 -19 393 0 401 0 456
23 73 29 141 89 171 150 23 47 23 50 23 402 0 319 -2 360 -18 402 -26 67 -101
132 -185 160 -65 22 -79 23 -594 26 l-528 3 0 -100z m1040 -495 c8 -11 11 -56
8 -154 -5 -215 1 -212 -380 -212 -243 0 -277 2 -313 19 -65 30 -79 52 -83 137
-3 41 -1 90 2 109 9 45 49 92 89 104 18 5 174 10 348 10 265 1 319 -1 329 -13z"/>
<path d="M8783 2255 c-124 -27 -218 -101 -243 -190 -8 -27 -11 -88 -9 -163 4
-115 5 -122 34 -163 38 -54 92 -92 170 -121 55 -20 85 -23 340 -28 169 -4 290
-11 306 -17 15 -7 36 -24 49 -40 19 -24 21 -37 18 -95 -4 -83 -27 -112 -100
-127 -29 -7 -201 -11 -433 -11 l-385 0 0 -100 0 -100 467 0 c546 0 549 0 639
83 81 73 96 111 102 238 6 142 -11 203 -77 269 -30 30 -69 56 -107 71 -55 21
-77 23 -349 29 -301 6 -327 10 -372 52 -19 18 -23 32 -23 88 0 74 8 88 73 115
31 13 100 15 447 15 l410 0 0 105 0 105 -447 -1 c-338 0 -463 -4 -510 -14z"/>
<path d="M10020 1685 l0 -585 140 0 140 0 0 585 0 585 -140 0 -140 0 0 -585z"/>
<path d="M10680 2171 l0 -100 473 -3 c434 -3 475 -4 505 -21 36 -20 71 -83 72
-129 l0 -28 -312 0 c-465 0 -562 -16 -660 -107 -73 -69 -80 -97 -76 -310 l3
-181 30 -44 c38 -53 103 -98 181 -124 54 -17 90 -19 459 -19 393 0 401 0 456
23 73 29 141 89 171 150 23 47 23 50 23 402 0 319 -2 360 -18 402 -26 67 -101
132 -185 160 -65 22 -79 23 -594 26 l-528 3 0 -100z m1040 -495 c8 -11 11 -56
8 -154 -5 -215 1 -212 -380 -212 -243 0 -277 2 -313 19 -65 30 -79 52 -83 137
-3 41 -1 90 2 109 9 45 49 92 89 104 18 5 174 10 348 10 265 1 319 -1 329 -13z"/>
<path d="M6095 1707 c-77 -56 -146 -114 -154 -129 -14 -23 -12 -39 18 -174 17
-82 37 -161 42 -175 13 -34 66 -85 102 -98 32 -12 453 -15 460 -3 8 15 -220
652 -239 667 -10 8 -35 14 -54 14 -29 0 -60 -18 -175 -102z"/>
</g>
</svg>
