<?xml version="1.0" encoding="UTF-8" ?>
<!DOCTYPE svg PUBLIC "-//W3C//DTD SVG 1.1//EN" "http://www.w3.org/Graphics/SVG/1.1/DTD/svg11.dtd">
<svg width="75pt" height="75pt" viewBox="0 0 75 75" version="1.1" xmlns="http://www.w3.org/2000/svg">
<path fill="#000000" d=" M 27.81 1.67 C 30.98 10.56 33.94 19.52 37.12 28.41 C 30.90 29.33 24.64 29.98 18.42 30.90 C 21.33 21.09 24.75 11.43 27.81 1.67 Z" />
<path fill="#ff1127" d=" M 2.32 36.38 C 25.71 33.41 49.07 30.21 72.47 27.31 C 69.97 29.62 67.04 31.37 64.29 33.35 C 45.22 46.59 26.26 59.97 7.14 73.13 C 9.85 64.12 12.99 55.25 15.74 46.25 C 11.28 42.95 6.67 39.84 2.32 36.38 Z" />
<path fill="#000000" d=" M 32.96 59.48 C 36.65 56.83 40.18 53.99 43.80 51.26 C 46.79 58.18 49.82 65.08 52.83 71.99 C 47.71 72.12 42.58 72.34 37.45 72.24 C 35.92 68.00 34.40 63.75 32.96 59.48 Z" />
</svg>
