<?xml version="1.0" encoding="UTF-8" ?>
<!DOCTYPE svg PUBLIC "-//W3C//DTD SVG 1.1//EN" "http://www.w3.org/Graphics/SVG/1.1/DTD/svg11.dtd">
<svg width="297pt" height="89pt" viewBox="0 0 297 89" version="1.1" xmlns="http://www.w3.org/2000/svg">
<path fill="#000000" stroke="#000000" stroke-width="0.6" d=" M 166.82 1.62 C 169.92 10.56 172.97 19.51 176.11 28.43 C 169.88 29.27 163.64 30.04 157.40 30.87 C 160.39 21.08 163.74 11.39 166.82 1.62 Z" />
<path fill="#000000" stroke="#000000" stroke-width="0.6" d=" M 10.85 20.95 C 18.27 17.08 27.01 18.97 34.74 20.80 C 34.75 23.96 34.75 27.12 34.75 30.29 C 29.61 28.42 23.96 25.82 18.45 27.63 C 15.06 28.88 14.07 33.68 16.87 36.05 C 23.10 41.20 31.76 43.49 36.46 50.44 C 41.53 58.69 36.84 70.88 27.31 73.12 C 19.57 75.30 11.42 74.01 3.75 72.21 C 3.75 68.78 3.75 65.36 3.75 61.94 C 9.43 64.60 16.02 67.41 22.31 65.23 C 26.47 63.73 27.60 57.64 24.16 54.84 C 18.57 50.36 11.26 48.12 6.66 42.39 C 1.33 35.90 3.35 24.92 10.85 20.95 Z" />
<path fill="#000000" stroke="#000000" stroke-width="0.6" d=" M 239.25 19.00 C 242.83 19.00 246.41 19.00 250.00 19.00 C 250.00 22.25 250.00 25.50 250.00 28.75 C 246.41 28.75 242.83 28.75 239.25 28.75 C 239.25 25.50 239.25 22.25 239.25 19.00 Z" />
<path fill="#000000" d=" M 46.73 27.33 C 50.39 26.79 54.07 26.40 57.75 25.94 C 57.75 28.46 57.75 30.98 57.75 33.50 C 60.41 33.50 63.08 33.50 65.75 33.50 C 65.75 36.00 65.75 38.50 65.75 41.00 C 63.08 41.00 60.42 41.00 57.75 41.00 C 57.75 46.98 57.75 52.96 57.74 58.94 C 57.74 60.94 57.82 63.16 59.27 64.70 C 61.33 66.31 64.10 65.60 66.48 65.48 C 66.50 67.89 66.50 70.31 66.52 72.72 C 61.58 74.06 55.92 74.45 51.38 71.71 C 48.05 69.72 46.74 65.73 46.76 62.03 C 46.72 55.02 46.77 48.01 46.75 41.01 C 45.33 41.00 43.92 41.00 42.50 41.00 C 42.50 38.50 42.50 36.00 42.50 33.50 C 43.92 33.50 45.34 33.50 46.75 33.50 C 46.75 31.44 46.74 29.39 46.73 27.33 Z" />
<path fill="#bf1e2e" d=" M 141.31 36.38 C 164.72 33.41 188.09 30.19 211.51 27.32 C 210.01 28.56 208.50 29.76 206.90 30.86 C 186.60 44.90 166.45 59.15 146.13 73.15 C 148.85 64.13 151.97 55.25 154.74 46.25 C 150.27 42.96 145.67 39.83 141.31 36.38 Z" />
<path fill="#000000" stroke="#000000" stroke-width="0.6" d=" M 74.50 35.43 C 81.80 32.83 90.20 31.33 97.58 34.40 C 101.08 35.75 103.69 39.09 103.82 42.88 C 104.32 49.90 103.73 56.96 104.09 63.99 C 103.93 66.25 106.36 66.40 108.00 66.09 C 107.98 68.30 108.09 70.52 108.28 72.72 C 103.28 74.25 96.31 74.80 93.52 69.32 C 93.12 45.96 93.74 42.47 91.00 41.09 C 85.48 38.85 79.49 41.39 74.48 43.82 C 74.50 41.03 74.50 38.23 74.50 35.43 Z" />
<path fill="#000000" stroke="#000000" stroke-width="0.6" d=" M 93.52 69.32 C 88.95 73.97 80.90 75.49 75.47 71.49 C 69.56 67.01 69.91 57.11 75.58 52.56 C 80.53 48.55 87.27 48.45 93.33 48.47 L 93.25 55.70 C 89.81 55.73 85.79 55.63 83.20 58.32 C 81.11 60.28 81.76 64.22 84.48 65.26 C 87.62 66.77 90.76 64.36 93.24 62.65 Z" />
<path fill="#000000" d=" M 115.01 33.50 C 118.68 33.50 122.35 33.48 126.03 33.53 C 126.01 35.52 126.00 37.52 125.97 39.51 C 128.84 34.90 134.27 31.82 139.77 32.92 C 139.74 36.40 139.73 39.89 139.76 43.38 C 134.65 40.97 128.20 43.66 126.08 48.79 C 125.88 56.86 126.06 64.93 126.00 73.00 C 122.33 73.00 118.67 73.00 115.00 73.00 C 115.00 59.83 114.99 46.66 115.01 33.50 Z" />
<path fill="#000000" stroke="#000000" stroke-width="0.6" d="M 279.54 49.24 C 279.31 46.68 280.27 42.96 277.26 41.72 C 271.88 39.62 266.06 42.08 261.25 44.59 C 261.25 41.79 261.25 38.98 261.25 36.18 L 261.25 36.18 C 267.48 33.73 274.40 32.64 281.00 34.05 C 285.23 34.97 289.49 38.12 289.83 42.74 C 290.40 50.12 289.55 57.57 290.25 64.94 C 290.12 66.87 292.39 66.89 293.75 66.82 C 293.94 69.04 294.01 71.27 294.03 73.51 C 289.24 74.88 282.34 75.42 279.84 70.01 Z" />
<path fill="#000000" stroke="#000000" stroke-width="0.5" d="M 279.84 70.01 C 275.57 74.27 268.55 76.00 263.17 72.83 C 256.79 68.82 256.37 58.79 261.78 53.80 C 266.45 49.27 273.43 49.08 279.54 49.24 L 279.49 56.46 C 275.11 55.98 267.98 57.20 268.62 63.03 C 270.25 68.23 276.72 66.36 279.54 63.26 Z" />
<path fill="#000000" d=" M 205.57 35.46 C 212.01 32.16 219.59 33.62 226.46 34.40 C 226.51 37.21 226.50 40.01 226.50 42.81 C 222.17 41.72 217.56 40.17 213.11 41.41 C 210.94 41.88 209.81 44.81 211.58 46.40 C 216.75 50.06 224.17 50.54 227.97 56.10 C 231.70 62.08 228.28 70.36 221.95 72.88 C 214.82 75.69 206.91 74.29 199.75 72.35 C 199.75 69.37 199.75 66.39 199.76 63.42 C 204.55 65.35 209.72 67.50 214.98 66.69 C 217.47 66.38 219.92 63.62 218.14 61.22 C 213.77 57.78 207.80 57.14 203.58 53.42 C 197.80 48.92 199.13 38.71 205.57 35.46 Z" />
<path fill="#000000" d=" M 239.25 34.25 C 242.83 34.25 246.41 34.25 250.00 34.25 C 250.00 47.42 250.00 60.58 250.00 73.75 C 246.41 73.75 242.83 73.75 239.25 73.75 C 239.25 60.58 239.25 47.42 239.25 34.25 Z" />
<path fill="#000000" d=" M 171.98 59.48 C 175.65 56.82 179.19 54.00 182.81 51.26 C 185.78 58.18 188.79 65.08 191.83 71.97 C 186.71 72.14 181.59 72.36 176.47 72.24 C 174.93 68.00 173.39 63.77 171.98 59.48 Z" />
</svg>